# xmcd
#
# Track frame offsets: 
#        150
#        17072
#        34752
#        53135
#        72485
#        90685
#        112990
#        132715
#        151947
#        168702
#        183162
#        202162
#
# Disc length: 2962 seconds
#
# Revision: 0
# Processed by: cddbd v1.5.1PL0 Copyright (c) Steve Scherf et al.
# Submitted via: ExactAudioCopy v0.95a2
#
DISCID=a90b900c
DTITLE=Peter O'Donnell - Shakespeare Blues
DYEAR=1993
DGENRE=Blues
TTITLE0=Mr. Blues Man
TTITLE1=Call Your Name
TTITLE2=Love and A Prayer
TTITLE3=Tender Heart
TTITLE4=Shakespeare Blues
TTITLE5=King Of The Highway
TTITLE6=Jean Harlow
TTITLE7=Love Goodbye
TTITLE8=Ivory Towers
TTITLE9=I'm In Love With You
TTITLE10=Rich Man's World
TTITLE11=I Wanna Love You Tonight
EXTD=
EXTT0=
EXTT1=
EXTT2=
EXTT3=
EXTT4=
EXTT5=
EXTT6=
EXTT7=
EXTT8=
EXTT9=
EXTT10=
EXTT11=
PLAYORDER=
